inDegrees=no
num_controls=7
num_derivatives=13
num_iterations=134
num_multipliers=7
num_parameters=0
num_slacks=7
num_states=26
objective=5.514688
objective_accelerations=0.411328
objective_balance=0.036843
objective_effort=0.432960
objective_height=4.608912
objective_ligament=0.024645
solver_duration=1479.856237
status=Solve_Succeeded
success=true
DataType=double
version=3
OpenSimVersion=4.4-2022-07-23-0e9fedc
endheader
time	/jointset/ground_pelvis/pelvis_tilt/value	/jointset/ground_pelvis/pelvis_tx/value	/jointset/ground_pelvis/pelvis_ty/value	/jointset/hip_l/hip_flexion_l/value	/jointset/hip_l/hip_adduction_l/value	/jointset/hip_l/hip_rotation_l/value	/jointset/back/lumbar_extension/value	/jointset/patellofemoral_l/patellar_flexion_l/value	/jointset/knee_l/knee_flexion_l/value	/jointset/knee_l/knee_adduction_l/value	/jointset/knee_l/knee_rotation_l/value	/jointset/ankle_l/ankle_angle_l/value	/jointset/subtalar_l/subtalar_angle_l/value	/jointset/ground_pelvis/pelvis_tilt/speed	/jointset/ground_pelvis/pelvis_tx/speed	/jointset/ground_pelvis/pelvis_ty/speed	/jointset/hip_l/hip_flexion_l/speed	/jointset/hip_l/hip_adduction_l/speed	/jointset/hip_l/hip_rotation_l/speed	/jointset/back/lumbar_extension/speed	/jointset/patellofemoral_l/patellar_flexion_l/speed	/jointset/knee_l/knee_flexion_l/speed	/jointset/knee_l/knee_adduction_l/speed	/jointset/knee_l/knee_rotation_l/speed	/jointset/ankle_l/ankle_angle_l/speed	/jointset/subtalar_l/subtalar_angle_l/speed	/forceset/tau_hip_flexion_l	/forceset/tau_hip_adduction_l	/forceset/tau_hip_rotation_l	/forceset/tau_knee_flexion_l	/forceset/tau_ankle_angle_l	/forceset/tau_subtalar_angle_l	/forceset/tau_lumbar_extension	lambda_cid13_p0	lambda_cid13_p1	lambda_cid13_p2	lambda_cid13_p3	lambda_cid13_p4	lambda_cid13_p5	lambda_cid14_p0	/jointset/ground_pelvis/pelvis_tilt/accel	/jointset/ground_pelvis/pelvis_tx/accel	/jointset/ground_pelvis/pelvis_ty/accel	/jointset/hip_l/hip_flexion_l/accel	/jointset/hip_l/hip_adduction_l/accel	/jointset/hip_l/hip_rotation_l/accel	/jointset/back/lumbar_extension/accel	/jointset/patellofemoral_l/patellar_flexion_l/accel	/jointset/knee_l/knee_flexion_l/accel	/jointset/knee_l/knee_adduction_l/accel	/jointset/knee_l/knee_rotation_l/accel	/jointset/ankle_l/ankle_angle_l/accel	/jointset/subtalar_l/subtalar_angle_l/accel	gamma_cid13_p0	gamma_cid13_p1	gamma_cid13_p2	gamma_cid13_p3	gamma_cid13_p4	gamma_cid13_p5	gamma_cid14_p0
0	-0.03680241043386048	0.05666873295607894	0.9203419628098366	0.3085811930696054	-0.2956346405274574	-0.3014807071386112	-0.3879500408040475	0.2499276582272184	0.249927658227084	-0.1745326309345747	-0.174408760804311	-0.0008036543073733089	0.000442028499611632	0	0	0	0	0	0	0	0	0	0	0	0	0	0.06187171419086717	-0.03673984337116977	-0.01898391153537663	-0.235417883893613	0.1834269318180707	-0.01831620993333942	0.01278969220295187	14.90449518818922	2.64039859061661	2.214115663653188	10.42357323955454	-629.6751857316194	-68.70990039503111	-23.19267836355573	-0.7664743595986229	-1.878974088263445	-0.8063572330136355	7.905587622339632	-0.9028730294972686	2.914558459944959	-6.930054864088019	7.926209140879227	7.926209140875125	0.6669992662168622	-0.05732386862621486	1.116246969039848	-0.5851069255851981	-1.942824574868585e-09	9.962507971341246e-08	7.700741620942455e-08	-1.721187092465104e-08	1.109403207346572e-07	-9.970706284842472e-10	-5.56649999982777e-09
0.01	-0.03683752029331501	0.05657678949763187	0.9203026345197696	0.3089655020714409	-0.2956796016026043	-0.3013347720227932	-0.3882936094086865	0.2503157803251499	0.250315780325419	-0.1745017975963267	-0.174408798718371	-0.0007486186351454968	0.0004126907282980615	-0.006983224449675977	-0.01820554233377582	-0.007822874326636512	0.07637731958092166	-0.00892024685990985	0.02903587428248936	-0.06812129760397875	0.07725475679454441	0.07725475679452937	0.006186357559229685	-1.504158034758068e-06	0.0110889297446799	-0.005763360028842762	0.05688081281479074	-0.04925106539046368	-0.01848856025940402	-0.2332786423422338	0.1789899540782511	-0.003949285534922793	0.01817114147232275	13.9083835278281	-3.30322528632041	3.022887380463029	8.594770570744473	-632.8590831145023	-80.79997815815643	-23.19724414361766	-0.6584426239627572	-1.763875354318685	-0.7638127916736284	7.431125955221745	-0.8758307182163654	2.87542248011913	-6.664303704365272	7.56966063089806	7.569660630897246	0.5974311701493193	0.02935840269978613	1.117488175876261	-0.5563463624362752	-3.034001049197318e-08	9.886976737710621e-08	1.200331283573108e-07	1.248080665409304e-08	5.393603913414487e-10	-3.132863897753366e-08	-1.151081058976708e-08
0.02	-0.03694130162476257	0.05630828440615663	0.9201863654345943	0.3100990486351791	-0.2958116111872188	-0.3009030140507489	-0.3893006182885306	0.2514653603284068	0.251465360328409	-0.1744085052483835	-0.1744086672543945	-0.0005802392257490019	0.0003288401925152234	-0.01373429435162108	-0.03531232660563274	-0.01538815902166431	0.1498475123315075	-0.01740970187928586	0.05716457127386217	-0.132688055039996	0.1522915808753642	0.152291580875361	0.01249180189359813	3.387536748550269e-05	0.02266874743709835	-0.01090255289373474	0.05188991144281949	-0.06176228740868146	-0.01799320899078302	-0.2311394007871114	0.174552976339805	0.01041763886517532	0.02355259074364545	12.97243620982614	-9.257087986946962	3.832954013033699	6.677119124500257	-635.1354969798786	-92.81823544910471	-23.21064449993611	-0.7200434500487516	-1.659222475883015	-0.7548393066919943	7.32416225627306	-0.8167146613907432	2.733123001721506	-6.219146830493594	7.482622598134959	7.482622598136246	0.6908166212443255	-0.04994713191577074	1.214424558583745	-0.4602734927966087	-5.873719640907778e-08	9.811445504079997e-08	1.630588405051971e-07	4.217348423283711e-08	-1.098615999519743e-07	-6.166020732658308e-08	-1.745512117970639e-08
0.03	-0.03711143284336212	0.05587305598190731	0.9199954054888716	0.3119544638758987	-0.2960265291661614	-0.3001947902847419	-0.3909376539519973	0.2533546119079622	0.2533546119078071	-0.1742519946592203	-0.1744085191737223	-0.0002951215757540505	0.0001960154838594847	-0.02023465174397016	-0.05166468203032167	-0.02279018278840312	0.2208930349863568	-0.02552389606236842	0.08433917859373072	-0.1943596740142871	0.2252155532972022	0.2252155532972872	0.0187707247790291	-1.151382775973928e-05	0.03428343001194024	-0.01563487134768633	0.04545172387469078	-0.05344365695085458	-0.01711100997567136	-0.2245420819953053	0.1680844981632964	0.006994705753574159	0.02890609131945298	10.71449736907674	-7.484443837034398	3.675175118409313	7.788226466627036	-636.3026288502761	-88.29000937577955	-23.23232328654846	-0.6064431941837233	-1.612932097965847	-0.7308592300617344	6.943363430665424	-0.8013050834564547	2.688458472670006	-6.087258879871493	7.145810823468946	7.145810823480785	0.5905231304174369	0.01710245538497569	1.124285091852083	-0.4756172380752613	-7.546533957715676e-08	9.408030793660449e-08	2.087750488788598e-07	5.507165732471449e-08	-1.669574997820164e-07	-8.375961260878861e-08	-2.441268079195844e-08
0.04	-0.0373448498981223	0.05527636599896171	0.9197308302417951	0.3145100575752629	-0.2963210957442408	-0.2992190546704082	-0.3931806236950202	0.2559628084633666	0.2559628084633684	-0.1740338762394301	-0.1744090375314782	0.0001040018969698853	1.668634738738119e-05	-0.02639146154971338	-0.06760463834488747	-0.03011121929241473	0.2898832040642997	-0.03333942171288332	0.1106669409355689	-0.2538748709471267	0.2960805760894356	0.2960805760895757	0.02481336799340696	-9.941227442339596e-05	0.04546991198341849	-0.02020343845690402	0.03901353630682457	-0.04512502649341783	-0.01622881095858479	-0.217944763203929	0.1616160199865375	0.003571772641458872	0.03425959189579848	8.513184316823102	-5.719151726125165	3.515641160970309	8.809050162598227	-636.6318613503936	-83.69102081168015	-23.26166085004583	-0.6513339327237829	-1.57674265386159	-0.7386418541466336	6.913091540892543	-0.7569809548771125	2.563754006115291	-5.787862422201224	7.070832672214613	7.070832672209286	0.6435606870340701	-0.05844898219987602	1.128784437907447	-0.4275232238509681	-9.195288392566819e-08	8.997855599183397e-08	2.545467314015077e-07	6.762355197356367e-08	-2.229543261994137e-07	-1.056892825700283e-07	-3.139113213662931e-08
0.05	-0.03763848053963636	0.0545229534732932	0.9193933693851486	0.3177451051061994	-0.2966920886752659	-0.2979844225022239	-0.3960069659604392	0.2592695383578223	0.2592695383577744	-0.1737561408138331	-0.1744107105382149	0.0006137174649579442	-0.0002069711568172663	-0.03228924762248745	-0.08294707460865856	-0.03737088703998686	0.3567252695405083	-0.04079006260741352	0.1361177343368086	-0.3109617525450753	0.3649191819434946	0.3649191819435217	0.03071621914408194	-0.0002305901747817647	0.0564827088557931	-0.02445347779596459	0.03356712716661214	-0.04493763744068632	-0.01566085905951926	-0.215106271942324	0.1588435985820061	0.006168997990845602	0.03937852057235794	7.714167029597168	-6.707573386106092	3.673621071389959	8.052440763358064	-637.5928522702729	-85.02553423223254	-23.29785690974398	-0.5521944414189631	-1.493361667890988	-0.7181645290725006	6.509597616127364	-0.7287805537142367	2.514442420906461	-5.604326585455873	6.738447747940252	6.738447747926479	0.5610604821272603	0.0102799780176162	1.088949382450056	-0.4125995137860893	-1.043215408648234e-07	8.020397376483276e-08	2.807205006792951e-07	8.00670650842132e-08	-2.759984486208876e-07	-1.222833635627303e-07	-3.537312617927876e-08
0.06	-0.03798972774142613	0.05362004307392607	0.9189836047922176	0.3216365400049925	-0.29713552299464	-0.2964995423172993	-0.3993912221532212	0.2632542689521066	0.2632542689520858	-0.1734198942461857	-0.174413548889388	0.001233845415776456	-0.0004709000993834823	-0.03791477356929045	-0.0975042130846111	-0.04457196654925042	0.421160677622317	-0.04782769938091055	0.1607165442891921	-0.3654576564171788	0.4316807160350907	0.4316807160350404	0.03651559641653471	-0.0003324811962887823	0.06755238855002475	-0.02825772612911845	0.02812071802787638	-0.04475024838775674	-0.01509290716108444	-0.2122677806798637	0.1560711771777782	0.008766223340549061	0.04449744924984435	6.965545976437729	-7.704162408415969	3.832152995254197	7.209431914662594	-637.8009364490198	-86.29795173968306	-23.33998804030992	-0.5968819075257984	-1.419683096300893	-0.7269242064849977	6.431760062013326	-0.6743801306702912	2.393357316343988	-5.269666877030132	6.655418319722587	6.65541831972438	0.6228659113901335	-0.05259160642984289	1.140161002275515	-0.3383650226706025	-1.165167709656899e-07	7.019053552594815e-08	3.060690946625622e-07	9.250601476167537e-08	-3.289182466635857e-07	-1.386527881778096e-07	-3.92289535986852e-08
0.07000000000000001	-0.03839617935445491	0.05257538887292285	0.9185019713899124	0.3261609695046058	-0.2976473026593339	-0.2947731012531006	-0.4033075428921941	0.267896536052784	0.2678965360525025	-0.1730262665286832	-0.1744175406305889	0.00196485458371108	-0.0007707160984734147	-0.04333582676004299	-0.1113043873941222	-0.05175509695370411	0.4833430911654489	-0.0544670519581467	0.1844348957909537	-0.4174074792653428	0.4964262673588128	0.4964262673588739	0.0421633195043908	-0.0004608002875380243	0.07863937955489243	-0.03164644728402793	0.02258972598103383	-0.04245095636134388	-0.01453397272960849	-0.20975372319897	0.1540085138891561	0.009271641734442709	0.04958994024558623	6.349386013562952	-7.831486256818156	3.87039168677184	6.563763613539939	-638.1256452446971	-85.72580990473729	-23.38699826012816	-0.5087635603167283	-1.341829995959768	-0.7141313390074019	6.054149961975278	-0.6495773207855843	2.340513285375558	-5.097788167769139	6.332165925478809	6.332165925494068	0.5287699924006436	0.007860173873557315	1.091452376052228	-0.3303170269102568	-1.256553037359145e-07	4.591013569580373e-08	3.320952227219113e-07	9.927139219496759e-08	-3.673483539316105e-07	-1.574711279303328e-07	-4.456384939447739e-08
0.08	-0.03885565080662494	0.05139640384927879	0.91794848190724	0.3312957567319377	-0.2982236487497187	-0.2928135888302306	-0.4077313914954876	0.2731758671437826	0.273175867143774	-0.1725775526833822	-0.1744226531161743	0.002806430506984793	-0.001102657582114631	-0.04851874136889622	-0.1243703776127802	-0.05894318262271368	0.5432322231690055	-0.06074098451682083	0.2073308160240208	-0.4669632292755011	0.5590935141537945	0.5590935141539585	0.04753282198897814	-0.0005566300049052174	0.08966573961811533	-0.03468282303929849	0.01705873393479548	-0.04015166433475556	-0.01397503829575962	-0.2072396657181014	0.1519458506006625	0.009777060128529262	0.05468243124169019	5.778801272511988	-7.96536392633585	3.908046314580012	5.833481887211723	-637.7781307742904	-85.09622124457131	-23.43777388586728	-0.5492541911422854	-1.272846278133113	-0.7279152593962555	5.973103754099051	-0.6012961269575953	2.228871062605152	-4.790852309427	6.239757413975001	6.2397574139751	0.5672217907369472	-0.04609373165351344	1.128034813943414	-0.2678959427436881	-1.345966302267429e-07	2.070928673073936e-08	3.581650626571366e-07	1.056707327092811e-07	-4.048436424399789e-07	-1.764474622078524e-07	-4.9994168956488e-08
